<?xml version="1.0" standalone="no"?>
<!DOCTYPE svg PUBLIC "-//W3C//DTD SVG 20010904//EN"
 "http://www.w3.org/TR/2001/REC-SVG-20010904/DTD/svg10.dtd">
<svg fill="#ffffff" version="1.0" xmlns="http://www.w3.org/2000/svg"
 width="1280.000000pt" height="1280.000000pt" viewBox="0 0 1280.000000 1280.000000"
 preserveAspectRatio="xMidYMid meet">
<metadata>
Created by potrace 1.16, written by Peter Selinger 2001-2019
</metadata>
<g transform="translate(0.000000,1280.000000) scale(0.100000,-0.100000)"
fill="#000000" stroke="none">
<path fill="#ffffff" d="M11389 12787 c-38 -29 -43 -57 -47 -283 -7 -359 20 -691 79 -989 33
-165 45 -187 111 -207 32 -9 45 -9 74 5 43 21 52 43 71 187 27 201 11 381 -75
870 -22 124 -43 257 -47 295 -11 109 -31 134 -105 134 -25 0 -52 -5 -61 -12z"/>
<path fill="#ffffff" d="M3855 11493 c-218 -27 -464 -120 -647 -245 -51 -34 -58 -43 -58 -72
0 -67 63 -85 148 -42 135 68 268 96 613 131 361 36 379 42 379 127 0 57 -31
85 -110 98 -61 9 -259 11 -325 3z"/>
<path fill="#ffffff" d="M5537 11481 c-34 -4 -62 -12 -68 -21 -29 -45 -19 -107 22 -127 13 -7
45 -13 71 -13 26 0 100 -7 165 -15 372 -49 682 -162 964 -351 145 -97 164
-101 216 -49 31 31 35 40 30 72 -8 45 -67 108 -187 199 -202 153 -484 258
-790 293 -118 13 -353 20 -423 12z"/>
<path fill="#ffffff" d="M2120 11161 c-78 -25 -128 -53 -182 -100 -132 -117 -220 -313 -253
-568 -24 -186 -15 -437 18 -470 21 -21 97 -28 119 -11 13 9 24 48 38 131 42
248 98 425 167 529 54 82 114 136 260 233 141 94 164 132 128 209 -24 51 -61
66 -157 65 -51 0 -104 -7 -138 -18z"/>
<path fill="#ffffff" d="M7425 10705 c-18 -17 -25 -35 -25 -63 0 -36 5 -43 63 -88 100 -78
335 -313 535 -534 328 -363 340 -372 410 -336 56 29 56 72 0 178 -135 253
-419 539 -779 784 -135 92 -163 101 -204 59z"/>
<path fill="#ffffff" d="M11322 10030 c-30 -13 -37 -34 -57 -184 -33 -250 -86 -430 -206 -692
-44 -99 -92 -207 -106 -242 l-26 -64 20 -26 c15 -21 30 -28 63 -30 41 -3 46
-1 101 58 105 109 189 268 243 453 45 156 58 251 63 478 l5 216 -27 21 c-30
24 -39 25 -73 12z"/>
<path fill="#ffffff" d="M1064 9401 c-30 -13 -80 -74 -95 -118 -8 -21 -13 -72 -13 -113 3
-148 107 -352 259 -507 67 -67 75 -73 114 -73 47 0 81 26 81 63 0 13 -13 42
-29 65 -99 135 -123 209 -130 402 -7 170 -25 230 -77 265 -31 20 -82 28 -110
16z"/>
<path fill="#ffffff" d="M9077 9380 c-15 -12 -29 -36 -33 -56 -7 -39 7 -63 104 -176 88 -102
157 -221 242 -416 73 -169 120 -258 144 -274 26 -18 76 -8 108 21 31 28 33 32
30 93 -9 218 -152 486 -392 731 -90 92 -97 97 -136 97 -26 0 -51 -7 -67 -20z"/>
<path fill="#ffffff" d="M1056 7861 c-42 -28 -55 -58 -55 -121 -1 -191 256 -466 634 -682 150
-85 225 -119 257 -116 39 4 73 46 63 77 -4 12 -97 98 -208 190 -295 246 -370
330 -458 515 -52 109 -101 156 -162 156 -25 0 -54 -8 -71 -19z"/>
<path fill="#ffffff" d="M10229 7611 c-9 -3 -46 -42 -81 -86 -152 -188 -375 -398 -632 -594
-181 -139 -266 -219 -266 -249 0 -58 61 -112 124 -112 63 0 236 112 357 231
218 216 569 681 569 755 0 42 -35 69 -71 55z"/>
<path fill="#ffffff" d="M10189 6867 c-38 -29 -41 -52 -20 -165 26 -140 44 -274 76 -564 14
-130 34 -271 45 -313 27 -105 86 -213 126 -233 41 -19 94 -9 125 24 22 24 24
33 22 117 -1 62 -13 146 -36 257 -20 91 -47 233 -62 315 -56 322 -110 511
-158 555 -24 23 -92 27 -118 7z"/>
<path fill="#ffffff" d="M2273 6665 c-38 -16 -58 -68 -50 -132 11 -102 179 -218 507 -351 69
-28 159 -66 200 -85 173 -79 504 -177 595 -177 81 1 136 92 88 148 -10 11 -81
46 -158 77 -196 79 -414 186 -590 290 -234 138 -303 174 -395 205 -106 35
-158 41 -197 25z"/>
<path fill="#ffffff" d="M7854 6246 c-193 -86 -221 -93 -423 -121 -174 -24 -227 -50 -238
-118 -8 -50 32 -90 105 -106 165 -35 370 23 699 197 129 68 153 91 153 147 0
33 -50 85 -82 85 -13 0 -109 -38 -214 -84z"/>
<path fill="#ffffff" d="M4966 5791 c-85 -22 -106 -44 -106 -111 0 -70 24 -95 102 -108 111
-19 181 -22 283 -12 55 6 217 14 360 20 271 10 434 28 485 55 54 28 64 99 17
129 -32 21 -248 34 -692 40 -350 6 -386 4 -449 -13z"/>
<path fill="#ffffff" d="M10653 4790 c-42 -17 -49 -47 -73 -305 -35 -369 -29 -639 15 -725 29
-56 124 -65 163 -15 33 42 47 145 47 345 -1 190 -38 638 -57 673 -5 10 -20 22
-34 27 -29 12 -32 12 -61 0z"/>
<path fill="#ffffff" d="M10542 2810 c-12 -5 -26 -20 -32 -32 -10 -25 -32 -411 -37 -668 -4
-176 13 -308 44 -342 18 -21 70 -23 107 -6 70 31 81 106 73 528 -7 367 -17
474 -45 503 -22 21 -78 30 -110 17z"/>
<path fill="#ffffff" d="M11652 1860 c-41 -10 -124 -66 -173 -117 -62 -64 -132 -165 -243
-350 -117 -196 -247 -365 -484 -631 -81 -90 -160 -180 -177 -199 l-30 -34 -54
128 c-126 302 -538 1106 -592 1156 -75 69 -239 -2 -239 -105 0 -65 100 -309
299 -732 185 -392 247 -549 301 -770 33 -131 46 -158 93 -186 43 -27 156 -27
212 -1 58 27 396 379 632 659 173 205 403 488 465 571 122 161 200 365 184
475 -9 55 -60 120 -104 130 -15 4 -34 8 -42 10 -8 2 -30 0 -48 -4z"/>
</g>
</svg>
