<?xml version="1.0" standalone="no"?>
<!DOCTYPE svg PUBLIC "-//W3C//DTD SVG 20010904//EN"
 "http://www.w3.org/TR/2001/REC-SVG-20010904/DTD/svg10.dtd">
<svg fill="#ffffff" version="1.0" xmlns="http://www.w3.org/2000/svg"
 width="1280.000000pt" height="1280.000000pt" viewBox="0 0 1280.000000 1280.000000"
 preserveAspectRatio="xMidYMid meet">
<metadata>
Created by potrace 1.16, written by Peter Selinger 2001-2019
</metadata>
<g transform="translate(0.000000,1280.000000) scale(0.100000,-0.100000)"
fill="#000000" stroke="none">
<path fill="#ffffff" d="M8284 12739 c-28 -31 -25 -93 7 -125 21 -21 43 -28 129 -40 186 -28
345 -78 715 -225 107 -43 113 -44 226 -44 128 0 161 10 185 57 18 35 18 101
-1 138 -18 34 -98 97 -170 133 -162 81 -482 127 -880 127 -182 0 -193 -1 -211
-21z"/>
<path fill="#ffffff" d="M4295 12710 c-110 -9 -324 -37 -635 -84 -91 -13 -221 -30 -290 -37
-130 -12 -150 -19 -150 -50 0 -21 -41 -14 426 -79 584 -81 837 -98 910 -64 54
26 78 68 82 144 3 55 0 70 -20 99 -52 76 -106 88 -323 71z"/>
<path fill="#ffffff" d="M6480 12676 c-96 -13 -213 -33 -260 -44 -150 -36 -384 -124 -422
-159 -33 -29 -18 -96 25 -112 13 -5 105 0 217 11 107 10 344 22 525 27 306 7
334 10 388 30 31 12 73 37 92 55 29 28 35 40 35 75 0 127 -213 169 -600 117z"/>
<path fill="#ffffff" d="M1349 12466 c-2 -3 -83 -12 -179 -21 -203 -19 -244 -27 -271 -51 -44
-39 -47 -143 -5 -190 38 -43 154 -66 368 -71 222 -6 262 -2 320 37 31 22 55
30 88 30 27 0 58 8 78 20 18 11 39 20 47 20 26 0 55 38 55 73 0 37 -26 80 -43
74 -7 -3 -28 11 -47 29 -26 24 -50 37 -89 44 -52 10 -313 14 -322 6z"/>
<path fill="#ffffff" d="M10269 11960 c-23 -13 -42 -65 -36 -92 4 -16 28 -34 79 -59 102 -51
169 -108 226 -193 60 -90 95 -196 122 -374 11 -74 29 -155 40 -180 73 -164
201 -137 231 48 17 108 -15 245 -102 426 -82 174 -246 325 -434 401 -86 35
-101 38 -126 23z"/>
<path fill="#ffffff" d="M10865 9867 c-24 -20 -28 -35 -38 -112 -5 -50 -10 -216 -11 -370 0
-260 1 -286 22 -360 46 -168 144 -315 208 -315 16 0 40 7 53 16 62 44 66 151
16 403 -39 193 -70 416 -81 586 -7 107 -8 111 -39 142 -41 41 -90 45 -130 10z"/>
<path fill="#ffffff" d="M10999 7655 c-38 -20 -53 -48 -92 -171 -69 -210 -95 -349 -104 -549
-10 -234 23 -424 104 -597 50 -107 79 -133 149 -133 51 0 58 3 86 34 l31 34
-7 96 c-4 53 -16 188 -28 301 -29 278 -31 647 -4 802 10 59 15 119 12 133 -8
30 -60 65 -96 65 -14 -1 -37 -7 -51 -15z"/>
<path fill="#ffffff" d="M10859 5185 c-14 -8 -31 -27 -37 -42 -17 -41 -52 -521 -52 -702 0
-175 11 -283 42 -416 17 -73 27 -96 53 -122 69 -69 125 -33 160 103 35 136 45
228 45 426 0 194 -35 690 -51 720 -23 43 -109 61 -160 33z"/>
<path fill="#ffffff" d="M10873 3096 c-49 -22 -68 -64 -112 -245 -46 -190 -60 -268 -96 -546
-33 -247 -31 -346 8 -421 29 -58 88 -114 119 -114 27 0 92 72 126 140 l27 55
-3 205 c-3 307 18 521 74 738 30 116 30 125 -3 162 -34 37 -91 48 -140 26z"/>
<path fill="#ffffff" d="M9875 1736 c-49 -22 -80 -62 -80 -105 0 -81 134 -318 383 -681 221
-322 328 -517 383 -701 30 -100 53 -143 91 -173 47 -35 84 -47 150 -47 110 -1
141 21 422 303 342 342 508 554 617 782 58 124 79 201 79 297 0 92 -12 134
-53 196 -82 122 -220 124 -349 5 -55 -51 -69 -73 -159 -257 -76 -155 -117
-225 -183 -313 -103 -137 -296 -372 -305 -372 -3 0 -22 26 -41 58 -53 89 -191
267 -391 507 -159 190 -263 323 -355 451 -43 58 -138 81 -209 50z"/>
</g>
</svg>
